<?xml version="1.0" encoding="utf-8"?>
<!-- Generator: Adobe Illustrator 21.1.0, SVG Export Plug-In . SVG Version: 6.00 Build 0)  -->
<svg version="1.1" id="圖層_1" xmlns="http://www.w3.org/2000/svg" xmlns:xlink="http://www.w3.org/1999/xlink" x="0px" y="0px"
	 viewBox="0 0 19.9 19.9" style="enable-background:new 0 0 19.9 19.9;" xml:space="preserve">
<style type="text/css">
	.st0{display:none;fill:url(#SVGID_1_);}
	.st1{display:none;fill-rule:evenodd;clip-rule:evenodd;fill:url(#SVGID_2_);}
	.st2{display:none;fill-rule:evenodd;clip-rule:evenodd;fill:url(#SVGID_3_);}
	.st3{display:none;}
	.st4{display:inline;}
	.st5{fill:url(#SVGID_4_);}
	.st6{display:none;fill:url(#SVGID_5_);}
	.st7{display:none;fill-rule:evenodd;clip-rule:evenodd;fill:url(#SVGID_6_);}
	.st8{fill:url(#SVGID_7_);}
	.st9{display:none;fill-rule:evenodd;clip-rule:evenodd;fill:url(#SVGID_8_);}
	.st10{fill:#9C9C9C;}
</style>
<linearGradient id="SVGID_1_" gradientUnits="userSpaceOnUse" x1="9.95" y1="18.3712" x2="9.95" y2="1.5188" gradientTransform="matrix(1 0 0 -1 0 19.9525)">
	<stop  offset="0" style="stop-color:#FFFFFF"/>
	<stop  offset="1" style="stop-color:#C49E4A"/>
</linearGradient>
<path class="st0" d="M19.3,9.7l-2.5-2.3V3.8c0-0.2-0.2-0.4-0.4-0.4h-2c-0.2,0-0.4,0.2-0.4,0.4V5l-3.5-3.2c-0.3-0.3-0.8-0.3-1.1,0
	L0.7,9.7c-0.3,0.3-0.4,0.8-0.1,1.1s0.8,0.4,1.1,0.1l1.4-1.3v0.7v7.2c0,0.5,0.4,0.9,0.9,0.9h3.6v-4.9c0-0.6,0.5-1.1,1.1-1.1h2.5
	c0.6,0,1.1,0.5,1.1,1.1v4.9h3.6c0.5,0,0.9-0.4,0.9-0.9v-7.2V9.8l1.2,1.1c0.2,0.1,0.3,0.2,0.5,0.2s0.4-0.1,0.6-0.3
	C19.6,10.5,19.6,10,19.3,9.7z M10,9.8c-0.9,0-1.6-0.7-1.6-1.6S9.1,6.6,10,6.6s1.6,0.7,1.6,1.6S10.9,9.8,10,9.8z"/>
<linearGradient id="SVGID_2_" gradientUnits="userSpaceOnUse" x1="9.95" y1="0.9508" x2="9.95" y2="18.9492">
	<stop  offset="0" style="stop-color:#FFFFFF"/>
	<stop  offset="1" style="stop-color:#C49E4A"/>
</linearGradient>
<path class="st1" d="M12.1,3.1l1.1,0.5l2-1c0.7,0.7,1.4,1.4,2.1,2.1l-1,2l0.5,1.2l2.2,0.7c0,1,0,1.9,0,2.9l-2.2,0.7l-0.5,1.1l1,2
	c-0.7,0.7-1.4,1.4-2.1,2.1l-2-1l-1.1,0.5l-0.7,2.2c-1,0-1.9,0-2.9,0l-0.7-2.2l-1.1-0.5l-2,1c-0.7-0.7-1.4-1.4-2.1-2.1l1-2l-0.5-1.1
	L1,11.4c0-1,0-1.9,0-2.9l2.2-0.7l0.5-1.2l-1-2c0.7-0.7,1.4-1.4,2.1-2.1l2,1l1.1-0.5L8.5,1c1,0,1.9,0,2.9,0L12.1,3.1L12.1,3.1z M10,7
	c-1.6,0-3,1.3-3,3c0,1.6,1.3,3,3,3c1.6,0,3-1.3,3-3C12.9,8.3,11.6,7,10,7z"/>
<linearGradient id="SVGID_3_" gradientUnits="userSpaceOnUse" x1="9.95" y1="1.503" x2="9.95" y2="19.4955">
	<stop  offset="0" style="stop-color:#FFFFFF"/>
	<stop  offset="1" style="stop-color:#C49E4A"/>
</linearGradient>
<path class="st2" d="M3.6,2.3C3.3,2.3,2.4,2.7,2.5,3.1L5,18.9l1,0.6l0.8-0.9l-1.1-7.2c0,0,0.1-0.1,0.2-0.3c0.8-0.6,4.5-2.7,6.1-2.7
	l0.2,1.1c1.2,1.2,5.3-1,5.3-1l-1.1-7.1C15,2.2,13.7,3,12,3.1c-0.4,0.1-0.4,0.1-0.5-0.2c-0.2-0.4-0.4-0.8-0.7-1.2c0,0-5.3,0-6.6,0.4
	C4.2,2.2,3.9,2.2,3.6,2.3z M4.3,2.9l1.3,8.2c0,0,0.1,0,0.2-0.1c0.7-3-0.4-6.9-1.3-8C4.3,2.6,4.3,2.8,4.3,2.9z"/>
<g class="st3">
	<g class="st4">
		<linearGradient id="SVGID_4_" gradientUnits="userSpaceOnUse" x1="9.95" y1="1.4533" x2="9.95" y2="18.4466">
			<stop  offset="0" style="stop-color:#FFFFFF"/>
			<stop  offset="1" style="stop-color:#C49E4A"/>
		</linearGradient>
		<path class="st5" d="M10.9,10.7c-0.1,0-0.2-0.1-0.3-0.1v3.6c0.5-0.1,0.9-0.2,1.2-0.5c0.4-0.3,0.7-0.8,0.7-1.4
			C12.5,11.6,12,11.1,10.9,10.7z M7.5,7.4C7.5,8,8.1,8.6,9.2,9l0.1,0V5.6C8.9,5.7,8.5,5.8,8.2,6C7.8,6.3,7.5,6.8,7.5,7.4z M15.8,3.9
			c-1.5-1.5-3.6-2.5-5.9-2.5c-2.3,0-4.4,1-5.9,2.5c-1.5,1.5-2.4,3.7-2.4,6c0,2.3,0.9,4.5,2.4,6c1.5,1.5,3.6,2.5,5.9,2.5
			c2.3,0,4.4-1,5.9-2.5c1.5-1.5,2.4-3.7,2.4-6C18.3,7.6,17.3,5.5,15.8,3.9z M12.6,14.5c-0.5,0.3-1.2,0.6-2,0.6v1.3h-0.3H9.5H9.3
			v-1.3c-0.9-0.1-1.6-0.4-2.1-0.9c-0.6-0.6-1-1.4-1.1-2.6h1.2c0.1,0.8,0.3,1.5,0.7,1.9c0.3,0.3,0.7,0.5,1.2,0.6v-4
			C8.8,10,8.4,9.8,7.9,9.7C6.8,9.2,6.3,8.4,6.3,7.4c0-0.9,0.4-1.6,1.1-2.1c0.5-0.4,1.2-0.6,1.9-0.6V3.5h0.3h0.8h0.3v1.2
			C11.4,4.7,12,5,12.4,5.4c0.6,0.5,1,1.2,1.1,2.2h-1.2c-0.1-0.7-0.4-1.2-0.8-1.5c-0.3-0.2-0.6-0.3-1-0.4v3.8
			c0.8,0.3,1.4,0.5,1.6,0.6c1.1,0.5,1.6,1.3,1.6,2.3C13.8,13.3,13.4,14,12.6,14.5z"/>
	</g>
</g>
<linearGradient id="SVGID_5_" gradientUnits="userSpaceOnUse" x1="9.9628" y1="2.4213" x2="9.9628" y2="17.9898">
	<stop  offset="0" style="stop-color:#FFFFFF"/>
	<stop  offset="1" style="stop-color:#C49E4A"/>
</linearGradient>
<path class="st6" d="M17.3,16.5V6.9h-4v9.5H12V2.4H8v14.1H6.6v-6h-4v6H1.2V18h17.4v-1.5H17.3z"/>
<linearGradient id="SVGID_6_" gradientUnits="userSpaceOnUse" x1="9.9628" y1="3.4975" x2="9.9628" y2="17.4974">
	<stop  offset="0" style="stop-color:#FFFFFF"/>
	<stop  offset="1" style="stop-color:#C49E4A"/>
</linearGradient>
<path class="st7" d="M2,3.5c0,0-0.8,0.1-0.8,0.6v11.6c0,0,0,1.7,1.8,1.7h15c0,0,0.6-0.3,0.6-0.8c0-0.5-0.6-0.9-0.6-0.9l-14.4,0
	c0,0-0.6,0.1-0.6-0.5v-2.8l3.4-1.2l3.7,2.7L18,8.5l0-2.7l-7.7,5.6L6.6,9.1L3,10.3l0-6.2C3,4.1,2.6,3.5,2,3.5z"/>
<g class="st3">
	<g class="st4">
		
			<linearGradient id="SVGID_7_" gradientUnits="userSpaceOnUse" x1="9.9628" y1="2.8059" x2="9.9628" y2="18.188" gradientTransform="matrix(1 0 0 1 0 -0.5469)">
			<stop  offset="0" style="stop-color:#FFFFFF"/>
			<stop  offset="1" style="stop-color:#C49E4A"/>
		</linearGradient>
		<path class="st8" d="M17.5,9.4l-0.1-0.2c-0.3-3.7-3.9-6.9-7.5-6.9c-3.7,0-7.2,3.2-7.5,6.9l0,0.2c-0.7,0.1-1.1,0.7-1.1,1.4V13
			c0,0.8,0.6,1.4,1.4,1.4c0.8,0,1.4-0.6,1.4-1.4v-2.2l0-1.1c0-3,2.9-5.8,5.8-5.8c3,0,5.9,2.7,5.9,5.8c0,0.3,0,1.1,0,1.1V13
			c0,0.8,0.6,1.4,1.4,1.4c0.8,0,1.4-0.6,1.4-1.4v-2.2C18.6,10.1,18.1,9.5,17.5,9.4z M13.1,16.4c0,0,0.2-0.6-0.6-0.9
			c-0.5-0.2-0.9,0.3-1.1,0.9c-0.1,0.4-0.2,0.9,0.3,1.1c0.5,0.3,0.8,0,1.1-0.3c0.9,0.3,4.3,0.6,4.4-2.3l-0.6-0.3
			C16.7,14.7,16.4,17.4,13.1,16.4z M14,15.1c0.8,0.6,0.6-3.9,0.6-5.4c0-0.9-1.5-3.4-4.6-3.5C7.1,6,5.4,8.3,5.3,9.6
			c0,1.4-0.1,3,0,4.5c0.1,3.7,4.6,3.2,4.6,3.2c0-0.5-0.2-1.7,0.9-2.6C12.3,13.7,13.8,14.6,14,15.1z"/>
	</g>
</g>
<linearGradient id="SVGID_8_" gradientUnits="userSpaceOnUse" x1="9.95" y1="2.4991" x2="9.95" y2="18.5007">
	<stop  offset="0" style="stop-color:#FFFFFF"/>
	<stop  offset="1" style="stop-color:#C49E4A"/>
</linearGradient>
<path class="st9" d="M9.3,2.7C8.7,2.7,8.8,3,8.5,3c-0.3,0,0.1-0.1-0.8,0C6.8,3.2,6.4,4.4,6.4,4.8c0,0.4-0.1,1.6,0,2.2
	c0.1,0.4-0.2,0.4-0.2,0.4C5.6,7.4,5.9,9,5.9,9c0.1,0.4,0,0.6,0.8,0.9C7,11,8,11.6,8,11.6s0,0.7,0,1.1c-0.1,0,0.3,1.2-2.2,1.6
	c-2.5,0.4-3,1.1-3.4,1.6C1.9,16.4,2,18.5,2,18.5l16,0c0,0-0.1-2.1-0.6-2.6c-0.5-0.4-1-1.2-3.5-1.6c-2.4-0.3-2-1.6-2-1.7
	c0-0.2,0-1,0-1s0.8-0.7,1.2-1.7C13.7,9.6,14,9.5,14,9.1c0,0,0.2-1.7-0.4-1.7c0,0-0.3,0.1-0.2-0.3c0.1-0.4,0.1-1.6,0-2
	c0-0.4,0-1.6-0.9-1.8c-0.6-0.1-0.7,0-1,0c-0.3,0-0.7-0.8-1.2-0.8L9.3,2.7z"/>
<g>
	<g>
		<path class="st10" d="M10,1c-5,0-9,4-9,9c0,5,4,9,9,9c5,0,9-4,9-9C18.9,5,14.9,1,10,1z M10,17.2c-4,0-7.3-3.3-7.3-7.3
			c0-4,3.3-7.3,7.3-7.3c4,0,7.3,3.3,7.3,7.3C17.2,14,14,17.2,10,17.2z M13.7,9.5h-2.8c-0.1,0-0.2-0.1-0.2-0.2V5.7
			C10.7,5.3,10.4,5,10,5C9.6,5,9.3,5.3,9.3,5.7V10c0,0.2,0.1,0.5,0.3,0.6c0,0,0,0,0,0c0.1,0.1,0.2,0.2,0.4,0.2h3.6
			c0.4,0,0.7-0.3,0.7-0.7C14.4,9.8,14.1,9.5,13.7,9.5z"/>
	</g>
</g>
</svg>
