<?xml version="1.0" encoding="utf-8"?>
<!-- Generator: Adobe Illustrator 21.1.0, SVG Export Plug-In . SVG Version: 6.00 Build 0)  -->
<svg version="1.1" id="圖層_1" xmlns="http://www.w3.org/2000/svg" xmlns:xlink="http://www.w3.org/1999/xlink" x="0px" y="0px"
	 viewBox="0 0 19.9 19.9" style="enable-background:new 0 0 19.9 19.9;" xml:space="preserve">
<style type="text/css">
	.st0{display:none;fill:url(#SVGID_1_);}
	.st1{display:none;fill-rule:evenodd;clip-rule:evenodd;fill:url(#SVGID_2_);}
	.st2{fill-rule:evenodd;clip-rule:evenodd;fill:url(#SVGID_3_);}
</style>
<linearGradient id="SVGID_1_" gradientUnits="userSpaceOnUse" x1="9.95" y1="18.3712" x2="9.95" y2="1.5188" gradientTransform="matrix(1 0 0 -1 0 19.9525)">
	<stop  offset="0" style="stop-color:#FFFFFF"/>
	<stop  offset="1" style="stop-color:#C49E4A"/>
</linearGradient>
<path class="st0" d="M19.3,9.7l-2.5-2.3V3.8c0-0.2-0.2-0.4-0.4-0.4h-2c-0.2,0-0.4,0.2-0.4,0.4V5l-3.5-3.2c-0.3-0.3-0.8-0.3-1.1,0
	L0.7,9.7c-0.3,0.3-0.4,0.8-0.1,1.1s0.8,0.4,1.1,0.1l1.4-1.3v0.7v7.2c0,0.5,0.4,0.9,0.9,0.9h3.6v-4.9c0-0.6,0.5-1.1,1.1-1.1h2.5
	c0.6,0,1.1,0.5,1.1,1.1v4.9h3.6c0.5,0,0.9-0.4,0.9-0.9v-7.2V9.8l1.2,1.1c0.2,0.1,0.3,0.2,0.5,0.2s0.4-0.1,0.6-0.3
	C19.6,10.5,19.6,10,19.3,9.7z M10,9.8c-0.9,0-1.6-0.7-1.6-1.6S9.1,6.6,10,6.6s1.6,0.7,1.6,1.6S10.9,9.8,10,9.8z"/>
<linearGradient id="SVGID_2_" gradientUnits="userSpaceOnUse" x1="9.95" y1="0.9508" x2="9.95" y2="18.9492">
	<stop  offset="0" style="stop-color:#FFFFFF"/>
	<stop  offset="1" style="stop-color:#C49E4A"/>
</linearGradient>
<path class="st1" d="M12.1,3.1l1.1,0.5l2-1c0.7,0.7,1.4,1.4,2.1,2.1l-1,2l0.5,1.2l2.2,0.7c0,1,0,1.9,0,2.9l-2.2,0.7l-0.5,1.1l1,2
	c-0.7,0.7-1.4,1.4-2.1,2.1l-2-1l-1.1,0.5l-0.7,2.2c-1,0-1.9,0-2.9,0l-0.7-2.2l-1.1-0.5l-2,1c-0.7-0.7-1.4-1.4-2.1-2.1l1-2l-0.5-1.1
	L1,11.4c0-1,0-1.9,0-2.9l2.2-0.7l0.5-1.2l-1-2c0.7-0.7,1.4-1.4,2.1-2.1l2,1l1.1-0.5L8.5,1c1,0,1.9,0,2.9,0L12.1,3.1L12.1,3.1z M10,7
	c-1.6,0-3,1.3-3,3c0,1.6,1.3,3,3,3c1.6,0,3-1.3,3-3C12.9,8.3,11.6,7,10,7z"/>
<linearGradient id="SVGID_3_" gradientUnits="userSpaceOnUse" x1="9.95" y1="1.503" x2="9.95" y2="19.4955">
	<stop  offset="0" style="stop-color:#FFFFFF"/>
	<stop  offset="1" style="stop-color:#C49E4A"/>
</linearGradient>
<path class="st2" d="M3.6,2.3C3.3,2.3,2.4,2.7,2.5,3.1L5,18.9l1,0.6l0.8-0.9l-1.1-7.2c0,0,0.1-0.1,0.2-0.3c0.8-0.6,4.5-2.7,6.1-2.7
	l0.2,1.1c1.2,1.2,5.3-1,5.3-1l-1.1-7.1C15,2.2,13.7,3,12,3.1c-0.4,0.1-0.4,0.1-0.5-0.2c-0.2-0.4-0.4-0.8-0.7-1.2c0,0-5.3,0-6.6,0.4
	C4.2,2.2,3.9,2.2,3.6,2.3z M4.3,2.9l1.3,8.2c0,0,0.1,0,0.2-0.1c0.7-3-0.4-6.9-1.3-8C4.3,2.6,4.3,2.8,4.3,2.9z"/>
</svg>
