<?xml version="1.0" encoding="utf-8"?>
<!-- Generator: Adobe Illustrator 21.1.0, SVG Export Plug-In . SVG Version: 6.00 Build 0)  -->
<svg version="1.1" id="圖層_1" xmlns="http://www.w3.org/2000/svg" xmlns:xlink="http://www.w3.org/1999/xlink" x="0px" y="0px"
	 viewBox="0 0 54.2 45.1" style="enable-background:new 0 0 54.2 45.1;" xml:space="preserve">
<style type="text/css">
	.st0{fill:url(#SVGID_1_);}
	.st1{display:none;fill:url(#SVGID_2_);}
	.st2{display:none;fill:url(#SVGID_3_);}
	.st3{display:none;fill:url(#SVGID_4_);}
	.st4{display:none;}
	.st5{display:inline;}
	.st6{fill:url(#SVGID_5_);}
	.st7{display:none;fill:url(#SVGID_6_);}
	.st8{display:none;fill:url(#SVGID_7_);}
	.st9{fill:url(#SVGID_8_);}
</style>
<g>
	<g>
		
			<linearGradient id="SVGID_1_" gradientUnits="userSpaceOnUse" x1="616.9802" y1="-18.2857" x2="616.9802" y2="26.8391" gradientTransform="matrix(1 0 0 1 -589.9051 18.2857)">
			<stop  offset="0" style="stop-color:#FFFFFF"/>
			<stop  offset="1" style="stop-color:#C49E4A"/>
		</linearGradient>
		<path class="st0" d="M39.7,10.8c2,0,3.6-1.6,3.6-3.6V3.6c0-2-1.6-3.6-3.6-3.6c-2,0-3.6,1.6-3.6,3.6v3.6
			C36.1,9.2,37.7,10.8,39.7,10.8z M14.4,10.8c2,0,3.6-1.6,3.6-3.6V3.6c0-2-1.6-3.6-3.6-3.6c-2,0-3.6,1.6-3.6,3.6v3.6
			C10.8,9.2,12.4,10.8,14.4,10.8z M50.5,5.4h-5.4v1.8c0,0-0.1,5.5-5.4,5.5c0,0-5.4-0.1-5.4-5.4l-0.1-1.9H19.8v1.8
			c0,0,0.1,5.5-5.4,5.5c0,0-5.5,0.1-5.5-5.4V5.4H3.6C1.6,5.4,0,7,0,9v32.5c0,2,1.6,3.6,3.6,3.6h46.9c2,0,3.6-1.6,3.6-3.6V9
			C54.2,7,52.5,5.4,50.5,5.4z M12.6,41.5h-9v-5.4h9V41.5z M12.6,32.5h-9v-5.4h9V32.5z M12.6,23.5h-9v-5.4h9V23.5z M25.3,41.5h-9
			v-5.4h9V41.5z M25.3,32.5h-9v-5.4h9V32.5z M25.3,23.5h-9v-5.4h9V23.5z M37.9,41.5h-9v-5.4h9V41.5z M37.9,32.5h-9v-5.4h9V32.5z
			 M37.9,23.5h-9v-5.4h9V23.5z M50.5,41.5h-9v-5.4h9V41.5z M50.5,32.5h-9v-5.4h9V32.5z M50.5,23.5h-9v-5.4h9V23.5z"/>
	</g>
</g>
<linearGradient id="SVGID_2_" gradientUnits="userSpaceOnUse" x1="21.4419" y1="835.3001" x2="21.4419" y2="852.1525" gradientTransform="matrix(1 0 0 1 0 -821.9375)">
	<stop  offset="0" style="stop-color:#FFFFFF"/>
	<stop  offset="1" style="stop-color:#C49E4A"/>
</linearGradient>
<path class="st1" d="M30.8,21.5l-2.5-2.3v-3.6c0-0.2-0.2-0.4-0.4-0.4h-2c-0.2,0-0.4,0.2-0.4,0.4v1.2L22,13.6c-0.3-0.3-0.8-0.3-1.1,0
	l-8.7,7.9c-0.3,0.3-0.4,0.8-0.1,1.1c0.3,0.3,0.8,0.4,1.1,0.1l1.4-1.3v0.7v7.2c0,0.5,0.4,0.9,0.9,0.9h3.6v-4.9c0-0.6,0.5-1.1,1.1-1.1
	h2.5c0.6,0,1.1,0.5,1.1,1.1v4.9h3.6c0.5,0,0.9-0.4,0.9-0.9v-7.2v-0.5l1.2,1.1c0.2,0.1,0.3,0.2,0.5,0.2s0.4-0.1,0.6-0.3
	C31.1,22.3,31.1,21.8,30.8,21.5z M21.5,21.6c-0.9,0-1.6-0.7-1.6-1.6c0-0.9,0.7-1.6,1.6-1.6s1.6,0.7,1.6,1.6
	C23.1,20.9,22.4,21.6,21.5,21.6z"/>
<linearGradient id="SVGID_3_" gradientUnits="userSpaceOnUse" x1="21.4801" y1="30.7268" x2="21.4801" y2="12.7284" gradientTransform="matrix(1 0 0 -1 0 43.4652)">
	<stop  offset="0" style="stop-color:#FFFFFF"/>
	<stop  offset="1" style="stop-color:#C49E4A"/>
</linearGradient>
<path class="st2" d="M23.6,14.9l1.1,0.5l2-1c0.7,0.7,1.4,1.4,2.1,2.1l-1,2l0.5,1.2l2.2,0.7c0,1,0,1.9,0,2.9L28.3,24l-0.5,1.1l1,2
	c-0.7,0.7-1.4,1.4-2.1,2.1l-2-1l-1.1,0.5l-0.7,2.2c-1,0-1.9,0-2.9,0l-0.7-2.2l-1.1-0.5l-2,1c-0.7-0.7-1.4-1.4-2.1-2.1l1-2L14.6,24
	l-2.1-0.8c0-1,0-1.9,0-2.9l2.2-0.7l0.5-1.2l-1-2c0.7-0.7,1.4-1.4,2.1-2.1l2,1l1.1-0.5l0.6-2c1,0,1.9,0,2.9,0L23.6,14.9L23.6,14.9z
	 M21.5,18.8c-1.6,0-3,1.3-3,3c0,1.6,1.3,3,3,3c1.6,0,3-1.3,3-3C24.4,20.1,23.1,18.8,21.5,18.8z"/>
<linearGradient id="SVGID_4_" gradientUnits="userSpaceOnUse" x1="21.4763" y1="30.1746" x2="21.4763" y2="12.1821" gradientTransform="matrix(1 0 0 -1 0 43.4652)">
	<stop  offset="0" style="stop-color:#FFFFFF"/>
	<stop  offset="1" style="stop-color:#C49E4A"/>
</linearGradient>
<path class="st3" d="M15.1,14.1c-0.3,0-1.2,0.4-1.1,0.8l2.5,15.8l1,0.6l0.8-0.9l-1.1-7.2c0,0,0.1-0.1,0.2-0.3
	c0.8-0.6,4.5-2.7,6.1-2.7l0.2,1.1c1.2,1.2,5.3-1,5.3-1l-1.1-7.1c-1.4,0.8-2.7,1.6-4.4,1.7C23.1,15,23.1,15,23,14.7
	c-0.2-0.4-0.4-0.8-0.7-1.2c0,0-5.3,0-6.6,0.4C15.7,14,15.4,14,15.1,14.1z M15.8,14.7l1.3,8.2c0,0,0.1,0,0.2-0.1c0.7-3-0.4-6.9-1.3-8
	C15.8,14.4,15.8,14.6,15.8,14.7z"/>
<g class="st4">
	<g class="st5">
		
			<linearGradient id="SVGID_5_" gradientUnits="userSpaceOnUse" x1="21.3836" y1="30.2243" x2="21.3836" y2="13.2243" gradientTransform="matrix(1 0 0 -1 0 43.4652)">
			<stop  offset="0" style="stop-color:#FFFFFF"/>
			<stop  offset="1" style="stop-color:#C49E4A"/>
		</linearGradient>
		<path class="st6" d="M22.4,22.5c-0.1,0-0.2-0.1-0.3-0.1V26c0.5-0.1,0.9-0.2,1.2-0.5c0.4-0.3,0.7-0.8,0.7-1.4
			C24,23.4,23.5,22.9,22.4,22.5z M19,19.2c0,0.6,0.6,1.2,1.7,1.6h0.1v-3.4c-0.4,0.1-0.8,0.2-1.1,0.4C19.3,18.1,19,18.6,19,19.2z
			 M27.3,15.7c-1.5-1.5-3.6-2.5-5.9-2.5s-4.4,1-5.9,2.5s-2.4,3.7-2.4,6s0.9,4.5,2.4,6s3.6,2.5,5.9,2.5s4.4-1,5.9-2.5s2.4-3.7,2.4-6
			C29.8,19.4,28.8,17.3,27.3,15.7z M24.1,26.3c-0.5,0.3-1.2,0.6-2,0.6v1.3h-0.3H21h-0.2v-1.3c-0.9-0.1-1.6-0.4-2.1-0.9
			c-0.6-0.6-1-1.4-1.1-2.6h1.2c0.1,0.8,0.3,1.5,0.7,1.9c0.3,0.3,0.7,0.5,1.2,0.6v-4c-0.4-0.1-0.8-0.3-1.3-0.4
			c-1.1-0.5-1.6-1.3-1.6-2.3c0-0.9,0.4-1.6,1.1-2.1c0.5-0.4,1.2-0.6,1.9-0.6v-1.2h0.3h0.8h0.3v1.2c0.7,0,1.3,0.3,1.7,0.7
			c0.6,0.5,1,1.2,1.1,2.2h-1.2c-0.1-0.7-0.4-1.2-0.8-1.5c-0.3-0.2-0.6-0.3-1-0.4v3.8c0.8,0.3,1.4,0.5,1.6,0.6
			c1.1,0.5,1.6,1.3,1.6,2.3C25.3,25.1,24.9,25.8,24.1,26.3z"/>
	</g>
</g>
<linearGradient id="SVGID_6_" gradientUnits="userSpaceOnUse" x1="21.3801" y1="29.2563" x2="21.3801" y2="13.6878" gradientTransform="matrix(1 0 0 -1 0 43.4652)">
	<stop  offset="0" style="stop-color:#FFFFFF"/>
	<stop  offset="1" style="stop-color:#C49E4A"/>
</linearGradient>
<path class="st7" d="M28.8,28.3v-9.6h-4v9.5h-1.3v-14h-4v14.1h-1.4v-6h-4v6h-1.4v1.5h17.4v-1.5H28.8z"/>
<linearGradient id="SVGID_7_" gradientUnits="userSpaceOnUse" x1="21.3801" y1="28.1776" x2="21.3801" y2="14.1777" gradientTransform="matrix(1 0 0 -1 0 43.4652)">
	<stop  offset="0" style="stop-color:#FFFFFF"/>
	<stop  offset="1" style="stop-color:#C49E4A"/>
</linearGradient>
<path class="st8" d="M13.5,15.3c0,0-0.8,0.1-0.8,0.6v11.6c0,0,0,1.7,1.8,1.7h15c0,0,0.6-0.3,0.6-0.8s-0.6-0.9-0.6-0.9H15.1
	c0,0-0.6,0.1-0.6-0.5v-2.8l3.4-1.2l3.7,2.7l7.9-5.4v-2.7l-7.7,5.6l-3.7-2.3l-3.6,1.2v-6.2C14.5,15.9,14.1,15.3,13.5,15.3z"/>
<g class="st4">
	<g class="st5">
		
			<linearGradient id="SVGID_8_" gradientUnits="userSpaceOnUse" x1="21.4301" y1="28.8717" x2="21.4301" y2="13.4896" gradientTransform="matrix(1 0 0 -1 0 42.9183)">
			<stop  offset="0" style="stop-color:#FFFFFF"/>
			<stop  offset="1" style="stop-color:#C49E4A"/>
		</linearGradient>
		<path class="st9" d="M29,21.2L28.9,21c-0.3-3.7-3.9-6.9-7.5-6.9c-3.7,0-7.2,3.2-7.5,6.9v0.2c-0.7,0.1-1.1,0.7-1.1,1.4v2.2
			c0,0.8,0.6,1.4,1.4,1.4c0.8,0,1.4-0.6,1.4-1.4v-2.2v-1.1c0-3,2.9-5.8,5.8-5.8c3,0,5.9,2.7,5.9,5.8c0,0.3,0,1.1,0,1.1v2.2
			c0,0.8,0.6,1.4,1.4,1.4s1.4-0.6,1.4-1.4v-2.2C30.1,21.9,29.6,21.3,29,21.2z M24.6,28.2c0,0,0.2-0.6-0.6-0.9
			c-0.5-0.2-0.9,0.3-1.1,0.9c-0.1,0.4-0.2,0.9,0.3,1.1c0.5,0.3,0.8,0,1.1-0.3c0.9,0.3,4.3,0.6,4.4-2.3l-0.6-0.3
			C28.2,26.5,27.9,29.2,24.6,28.2z M25.5,26.9c0.8,0.6,0.6-3.9,0.6-5.4c0-0.9-1.5-3.4-4.6-3.5c-2.9-0.2-4.6,2.1-4.7,3.4
			c0,1.4-0.1,3,0,4.5c0.1,3.7,4.6,3.2,4.6,3.2c0-0.5-0.2-1.7,0.9-2.6C23.8,25.5,25.3,26.4,25.5,26.9z"/>
	</g>
</g>
</svg>
